<svg width="22" height="24" viewBox="0 0 22 24" fill="none" xmlns="http://www.w3.org/2000/svg">
<path d="M0 6.26521C-0.00022316 6.40365 0.0499802 6.53652 0.139633 6.63451L10.6588 18.11C10.8455 18.3136 11.1481 18.3136 11.3349 18.11L21.854 6.63451C22.044 6.43436 22.0492 6.10418 21.8658 5.89694C21.6823 5.68975 21.3797 5.68402 21.1897 5.88413C21.1857 5.88833 21.1818 5.89259 21.1779 5.89694L10.9973 17.0031L0.816639 5.89591C0.630163 5.69195 0.32741 5.69156 0.14044 5.89498C0.0503387 5.99308 -0.00022316 6.12633 0 6.26521Z" fill="#F44336"/>
<path d="M0 6.26521C-0.00022316 6.40365 0.0499802 6.53652 0.139633 6.63451L10.6588 18.11C10.8455 18.3136 11.1481 18.3136 11.3349 18.11L21.854 6.63451C22.044 6.43436 22.0492 6.10418 21.8658 5.89694C21.6823 5.68975 21.3797 5.68402 21.1897 5.88413C21.1857 5.88833 21.1818 5.89259 21.1779 5.89694L10.9973 17.0031L0.816639 5.89591C0.630163 5.69195 0.32741 5.69156 0.14044 5.89498C0.0503387 5.99308 -0.00022316 6.12633 0 6.26521Z" fill="white"/>
</svg>
