<svg width="40" height="40" viewBox="0 0 40 40" fill="none" xmlns="http://www.w3.org/2000/svg">
<g clip-path="url(#clip0)">
<path d="M39.297 31.8197L35.5061 28.0288C34.4476 26.9703 33.7044 25.6412 33.3568 24.1853L33.0664 22.9688C32.8919 22.2377 32.5187 21.5702 31.9871 21.0387L26.7727 15.8243C26.6262 15.6779 26.4276 15.5955 26.2203 15.5955C26.1291 15.5955 26.0399 15.6123 25.9558 15.6426L23.651 13.3378L25.3792 11.6096C25.5257 11.463 25.6081 11.2644 25.6081 11.0572C25.6081 10.9809 25.5967 10.9058 25.5753 10.8339L32.8192 3.59C33.1242 3.28493 33.1242 2.79025 32.8192 2.4851L30.563 0.228823C30.2579 -0.0761703 29.7632 -0.0761703 29.4581 0.228823L21.7283 7.95858L20.0001 9.68682L18.2718 7.95858C18.2717 7.9585 18.2716 7.95834 18.2714 7.95827L16.8926 6.57947C16.5876 6.27448 16.0929 6.27448 15.7878 6.57947C15.4827 6.88454 15.4827 7.37922 15.7878 7.68437L16.6145 8.51107L15.463 9.66253L8.83819 3.03751L9.98965 1.88613L10.8162 2.71268C11.1213 3.01775 11.616 3.01775 11.921 2.71268C12.2261 2.4076 12.2262 1.91293 11.921 1.60778L10.5421 0.228823C10.3955 0.082342 10.1968 0 9.98965 0C9.78247 0 9.58372 0.082342 9.43724 0.228823L7.18096 2.4851C6.87589 2.79017 6.87589 3.28485 7.18096 3.59L14.4246 10.8337C14.3455 11.0997 14.4109 11.3996 14.6209 11.6096L16.3491 13.3379L14.0443 15.6426C13.9602 15.6123 13.871 15.5954 13.7798 15.5954C13.5726 15.5954 13.3739 15.6778 13.2274 15.8243L8.01305 21.0386C7.4815 21.5702 7.1083 22.2376 6.93378 22.9687L6.64339 24.1852C6.29582 25.6412 5.55263 26.9702 4.49414 28.0287L0.703208 31.8197C0.250092 32.2728 0.000488281 32.8753 0.000488281 33.5162C0.000488281 34.157 0.250092 34.7595 0.703208 35.2125L4.78632 39.2956C5.24483 39.7541 5.84763 40 6.47371 40C6.67253 40 6.87386 39.9752 7.07346 39.9245C7.90149 39.7141 8.54062 39.0994 8.78319 38.2802L10.7298 31.7052C10.9975 31.931 11.3109 32.1017 11.6566 32.2048C11.9017 32.2778 12.1491 32.3125 12.3926 32.3125C13.5049 32.3125 14.5345 31.5871 14.8681 30.468L15.7336 27.5636C15.8658 27.12 15.8719 26.6685 15.7741 26.2469L17.1263 24.8946C17.9003 24.1206 17.9003 22.8612 17.1263 22.087L16.159 21.1198L17.3411 19.9377C17.4846 19.7942 17.5598 19.6087 17.5682 19.4208L20.0003 16.9887L22.4324 19.4208C22.4409 19.6087 22.5159 19.7942 22.6595 19.9377L23.8415 21.1198L22.8742 22.087C22.1002 22.8611 22.1002 24.1205 22.8742 24.8946L24.2265 26.2469C24.1286 26.6685 24.1347 27.12 24.2669 27.5636L25.1324 30.468C25.466 31.5872 26.4955 32.3126 27.6079 32.3125C27.8513 32.3125 28.0989 32.2777 28.3439 32.2048C28.6896 32.1017 29.003 31.931 29.2707 31.7052L31.2173 38.2802C31.4598 39.0994 32.099 39.7141 32.927 39.9245C33.1267 39.9752 33.3279 40 33.5268 40C34.1527 40 34.7557 39.7541 35.2142 39.2956L39.2972 35.2125C39.7503 34.7594 39.9999 34.1569 39.9999 33.5161C39.9999 32.8752 39.7501 32.2728 39.297 31.8197ZM26.2203 17.4816L30.3464 21.6076L27.9357 23.0045L24.3165 19.3854L26.2203 17.4816ZM30.0105 1.88613L31.162 3.03751L24.5371 9.66245L23.3856 8.51099L30.0105 1.88613ZM22.2808 9.61589L23.722 11.0572L22.5462 12.2329L21.105 10.7917L22.2808 9.61589ZM13.7799 17.4816L15.6837 19.3854L12.0645 23.0045L9.6538 21.6076L13.7799 17.4816ZM7.28494 37.8366C7.16299 38.2484 6.82737 38.3749 6.6887 38.41C6.55011 38.4453 6.19489 38.4945 5.89122 38.1907L1.80811 34.1076C1.65014 33.9497 1.56311 33.7395 1.56311 33.5161C1.56311 33.2926 1.65014 33.0825 1.80818 32.9245L5.59912 29.1336C6.8619 27.8707 7.7486 26.2851 8.1632 24.5481L8.45359 23.3316C8.4957 23.1551 8.55726 22.9851 8.63546 22.8233L11.2767 24.3539L7.28494 37.8366ZM14.236 27.1173L13.3705 30.0217C13.21 30.5604 12.6412 30.8679 12.1027 30.7073C11.8419 30.6296 11.6269 30.455 11.4974 30.2154C11.3679 29.9761 11.3394 29.7005 11.4171 29.4396L12.2826 26.5352C12.4144 26.0933 12.8208 25.807 13.2598 25.807C13.3559 25.807 13.4536 25.8208 13.5504 25.8495C14.0889 26.0102 14.3966 26.5789 14.236 27.1173ZM16.0212 23.7898L14.9417 24.8693C14.6745 24.6388 14.3562 24.4594 13.9967 24.3522C13.6711 24.2553 13.3414 24.2265 13.0222 24.2564L15.0539 22.2247L16.0212 23.1919C16.1862 23.3568 16.1862 23.625 16.0212 23.7898ZM16.6436 18.1355L15.2023 16.6943L17.454 14.4427L18.8952 15.884L16.6436 18.1355ZM23.3565 18.1355L16.2781 11.0572L17.7193 9.61589L24.7978 16.6943L23.3565 18.1355ZM25.0585 24.8693L23.979 23.7898C23.8141 23.625 23.8141 23.3568 23.979 23.192L24.9463 22.2248L26.9779 24.2563C26.6587 24.2264 26.3291 24.2553 26.0036 24.3523C25.644 24.4594 25.3256 24.6389 25.0585 24.8693ZM28.5028 30.2155C28.3732 30.455 28.1582 30.6297 27.8974 30.7074C27.359 30.8682 26.7901 30.5603 26.6296 30.0218L25.7641 27.1174C25.6035 26.5789 25.9112 26.0102 26.4497 25.8497C26.5464 25.8209 26.6441 25.8071 26.7402 25.8071C27.1793 25.8071 27.5858 26.0935 27.7174 26.5353L28.5829 29.4397C28.6607 29.7005 28.6323 29.9761 28.5028 30.2155ZM38.1922 34.1077L34.1091 38.1908C33.8055 38.4945 33.4502 38.4454 33.3116 38.4101C33.1729 38.375 32.8373 38.2486 32.7153 37.8367L28.7235 24.3539L31.3648 22.8233C31.443 22.9851 31.5046 23.1551 31.5467 23.3316L31.8371 24.5481C32.2518 26.2851 33.1384 27.8707 34.4012 29.1336L38.1922 32.9245C38.3501 33.0825 38.4372 33.2926 38.4372 33.5161C38.4372 33.7395 38.3502 33.9497 38.1922 34.1077Z" fill="black"/>
<path d="M13.8542 5.42725C14.0605 5.42725 14.2612 5.34443 14.4073 5.19834C14.5526 5.05303 14.6355 4.85146 14.6355 4.646C14.6355 4.44053 14.5526 4.23896 14.4073 4.09365C14.262 3.94842 14.0605 3.86475 13.8542 3.86475C13.6487 3.86475 13.4479 3.94834 13.3019 4.09365C13.1565 4.23896 13.0737 4.44053 13.0737 4.646C13.0737 4.85146 13.1565 5.05303 13.3019 5.19834C13.4479 5.34443 13.6495 5.42725 13.8542 5.42725Z" fill="black"/>
</g>
<defs>
<clipPath id="clip0">
<rect width="40" height="40" fill="white"/>
</clipPath>
</defs>
</svg>
