<svg width="44" height="44" viewBox="0 0 44 44" fill="none" xmlns="http://www.w3.org/2000/svg">
<g clip-path="url(#clip0)">
<path d="M11.4861 0C11.7399 -0.00044632 11.9834 0.0999603 12.1631 0.279266L33.2015 21.3175C33.5748 21.6909 33.5748 22.2963 33.2015 22.6697L12.1631 43.7081C11.7962 44.0879 11.1908 44.0984 10.8109 43.7316C10.431 43.3646 10.4205 42.7593 10.7874 42.3794C10.7951 42.3714 10.8029 42.3636 10.8109 42.3559L31.1722 21.9946L10.809 1.63328C10.4351 1.26033 10.4344 0.654819 10.8073 0.28088C10.9871 0.100677 11.2314 -0.00044632 11.4861 0Z" fill="#F44336"/>
<path d="M11.4861 0C11.7399 -0.00044632 11.9834 0.0999603 12.1631 0.279266L33.2015 21.3175C33.5748 21.6909 33.5748 22.2963 33.2015 22.6697L12.1631 43.7081C11.7962 44.0879 11.1908 44.0984 10.8109 43.7316C10.431 43.3646 10.4205 42.7593 10.7874 42.3794C10.7951 42.3714 10.8029 42.3636 10.8109 42.3559L31.1722 21.9946L10.809 1.63328C10.4351 1.26033 10.4344 0.654819 10.8073 0.28088C10.9871 0.100677 11.2314 -0.00044632 11.4861 0Z" fill="#E1E1E1"/>
</g>
<defs>
<clipPath id="clip0">
<rect width="44" height="44" fill="white" transform="translate(44 44) rotate(-180)"/>
</clipPath>
</defs>
</svg>
