<svg width="40" height="40" viewBox="0 0 40 40" fill="none" xmlns="http://www.w3.org/2000/svg">
<path d="M8.125 20.625H2.79687C2.28875 20.625 1.875 21.0381 1.875 21.5469V25.9538C1.875 26.4619 2.28875 26.875 2.79687 26.875C2.92687 26.875 3.05312 26.8481 3.17125 26.7956L8.125 24.5937V20.625ZM4.375 23.125H3.125V21.875H4.375V23.125ZM6.875 23.125H5.625V21.875H6.875V23.125Z" fill="white"/>
<path d="M14.4088 36.5694C14.3345 36.9563 14.4007 37.2894 14.5857 37.5681C14.7713 37.8463 15.0532 38.0356 15.3801 38.1013C15.4582 38.1169 15.5426 38.125 15.6257 38.125C16.2195 38.125 16.7351 37.7019 16.8507 37.12L17.6388 29.2125L15.0282 30.3731L14.4088 36.5694Z" fill="white"/>
<path d="M11.875 24.0625V20.625H9.375V24.375H11.9069C11.8919 24.2719 11.875 24.1694 11.875 24.0625Z" fill="white"/>
<path d="M19.5556 25.625L11.3969 29.2512C11.2106 29.3337 11.0144 29.375 10.8125 29.375C10.02 29.375 9.375 28.7306 9.375 27.9375V25.625H8.8825L8.125 25.9619V27.9375C8.125 29.4194 9.33062 30.625 10.8125 30.625C11.1906 30.625 11.5581 30.5469 11.9044 30.3931L20.5531 26.5488C20.3381 26.2794 20.1781 25.9681 20.0887 25.625H19.5556Z" fill="white"/>
<path d="M17.1613 11.2669C15.8706 10.5056 15 9.10437 15 7.5C15 5.08812 16.9625 3.125 19.375 3.125C21.7875 3.125 23.75 5.08812 23.75 7.5C23.75 9.10437 22.8794 10.5056 21.5887 11.2669C22.1537 11.3006 22.6962 11.4175 23.2044 11.6069C24.3456 10.5437 25 9.07 25 7.5C25 4.39813 22.4762 1.875 19.375 1.875C16.2738 1.875 13.75 4.39813 13.75 7.5C13.75 9.07 14.4044 10.5438 15.5456 11.6075C16.0544 11.4181 16.5963 11.3013 17.1613 11.2669Z" fill="white"/>
<path d="M17.1714 12.5169L19.1526 16.875H19.5976L21.5789 12.5169C21.4701 12.5088 21.3608 12.5 21.2501 12.5H17.5001C17.3895 12.5 17.2801 12.5088 17.1714 12.5169ZM18.7501 13.75H20.0001V15H18.7501V13.75Z" fill="white"/>
<path d="M19.375 10.625C21.1009 10.625 22.5 9.22589 22.5 7.5C22.5 5.77411 21.1009 4.375 19.375 4.375C17.6491 4.375 16.25 5.77411 16.25 7.5C16.25 9.22589 17.6491 10.625 19.375 10.625Z" fill="white"/>
<path d="M26.8751 24.0625C26.8751 24.1694 26.8583 24.2719 26.8433 24.375H28.1251V20.625H26.8751V24.0625Z" fill="white"/>
<path d="M29.375 20.625V24.375C29.375 24.72 29.6556 25 30 25H30.625V20H30C29.6556 20 29.375 20.28 29.375 20.625Z" fill="white"/>
<path d="M22.8238 12.7975L20.4025 18.125H18.3475L15.9263 12.7975C14.29 13.4312 13.125 15.0181 13.125 16.875V24.0625C13.125 24.5794 13.5456 25 14.0625 25C14.5794 25 15 24.5794 15 24.0625V18.125H16.25V19.375H22.5V18.125H23.75V24.0625C23.75 24.5794 24.1706 25 24.6875 25C25.2044 25 25.625 24.5794 25.625 24.0625V16.875C25.625 15.0181 24.46 13.4312 22.8238 12.7975Z" fill="white"/>
<path d="M32.5 20H31.875V25H32.5C32.8444 25 33.125 24.72 33.125 24.375V20.625C33.125 20.28 32.8444 20 32.5 20Z" fill="white"/>
<path d="M37.5 21.25H34.375V23.75H37.5C37.8444 23.75 38.125 23.47 38.125 23.125V21.875C38.125 21.53 37.8444 21.25 37.5 21.25Z" fill="white"/>
<path d="M20.0001 21.875H21.2501V22.8475C21.6195 22.6325 22.0426 22.5 22.5001 22.5V20.625H16.2501V24.0625C16.2501 24.1694 16.2333 24.2719 16.2183 24.375H20.0889C20.217 23.8812 20.4908 23.4506 20.8639 23.125H20.0001V21.875ZM18.7501 23.125H17.5001V21.875H18.7501V23.125Z" fill="white"/>
<path d="M21.25 25C21.25 25.6894 21.8106 26.25 22.5 26.25C22.8612 26.25 23.1831 26.0875 23.4144 25.8337C22.8631 25.4362 22.5 24.7925 22.5 24.0625V23.75C21.8106 23.75 21.25 24.3106 21.25 25Z" fill="white"/>
<path d="M23.417 27.3201C23.1307 27.4326 22.8226 27.5001 22.5001 27.5001C22.2432 27.5001 22.0001 27.4501 21.7664 27.3776L20.9639 27.7344L21.9082 37.1794C22.0151 37.7019 22.5307 38.1251 23.1245 38.1251C23.2076 38.1251 23.292 38.1169 23.367 38.1013C23.697 38.0357 23.9789 37.8463 24.1645 37.5676C24.3495 37.2894 24.4157 36.9557 24.3507 36.6294L23.417 27.3201Z" fill="white"/>
</svg>
