<svg width="50" height="50" viewBox="0 0 50 50" fill="none" xmlns="http://www.w3.org/2000/svg">
<path d="M29.3064 15.2806C29.3084 14.4935 29.0768 13.7235 28.6409 13.0681C28.2051 12.4127 27.5846 11.9013 26.8579 11.5988C26.1313 11.2962 25.3313 11.216 24.5591 11.3684C23.7868 11.5208 23.0772 11.8988 22.52 12.4547C21.9627 13.0106 21.5829 13.7193 21.4287 14.4911C21.2744 15.263 21.3527 16.0632 21.6535 16.7906C21.9543 17.5179 22.4641 18.1397 23.1184 18.5772C23.7728 19.0146 24.5422 19.2481 25.3293 19.248C26.3824 19.2481 27.3926 18.8304 28.1382 18.0867C28.8838 17.3429 29.304 16.3337 29.3064 15.2806ZM25.3293 18.0762C24.7768 18.0742 24.2373 17.9086 23.7789 17.6003C23.3204 17.292 22.9636 16.8547 22.7536 16.3437C22.5435 15.8327 22.4895 15.271 22.5984 14.7294C22.7074 14.1877 22.9744 13.6905 23.3657 13.3005C23.7571 12.9106 24.2552 12.6453 24.7972 12.5382C25.3392 12.4311 25.9008 12.487 26.411 12.6989C26.9213 12.9107 27.3573 13.269 27.6641 13.7285C27.9708 14.188 28.1345 14.7281 28.1346 15.2806C28.1324 16.023 27.8359 16.7343 27.31 17.2584C26.7841 17.7825 26.0717 18.0766 25.3293 18.0762Z" fill="white"/>
<path d="M12.3985 25.1074C11.8556 25.1087 11.3253 25.2708 10.8745 25.5734C10.4238 25.8759 10.0728 26.3053 9.86589 26.8072C9.65902 27.3092 9.60556 27.8612 9.71226 28.3935C9.81896 28.9258 10.081 29.4145 10.4654 29.7979C10.8497 30.1814 11.3391 30.4423 11.8716 30.5477C12.4042 30.6531 12.956 30.5984 13.4575 30.3903C13.9589 30.1822 14.3875 29.8302 14.6889 29.3787C14.9904 28.9272 15.1513 28.3965 15.1513 27.8536C15.1496 27.1247 14.8588 26.4261 14.3428 25.9113C13.8267 25.3965 13.1275 25.1074 12.3985 25.1074ZM12.3985 29.428C12.0874 29.4268 11.7837 29.3333 11.5256 29.1596C11.2675 28.9858 11.0667 28.7395 10.9486 28.4517C10.8304 28.1639 10.8001 27.8475 10.8616 27.5425C10.9231 27.2375 11.0735 26.9576 11.294 26.7381C11.5144 26.5185 11.795 26.3692 12.1002 26.309C12.4054 26.2488 12.7217 26.2803 13.009 26.3997C13.2963 26.519 13.5418 26.7208 13.7145 26.9796C13.8872 27.2384 13.9794 27.5425 13.9794 27.8536C13.9782 28.2719 13.811 28.6727 13.5146 28.9679C13.2183 29.2632 12.8169 29.4288 12.3985 29.4284V29.428Z" fill="white"/>
<path d="M29.7892 30.2131C29.3239 30.2142 28.8694 30.3531 28.4831 30.6123C28.0967 30.8716 27.7959 31.2395 27.6186 31.6697C27.4412 32.0998 27.3954 32.5728 27.4868 33.029C27.5782 33.4852 27.8028 33.9041 28.1321 34.2327C28.4615 34.5613 28.8808 34.7849 29.3372 34.8753C29.7936 34.9657 30.2666 34.9188 30.6963 34.7405C31.126 34.5622 31.4933 34.2606 31.7517 33.8736C32.01 33.4867 32.1479 33.0319 32.1479 32.5667C32.1465 31.942 31.8974 31.3434 31.4552 30.9021C31.013 30.4609 30.4138 30.2131 29.7892 30.2131ZM29.7892 33.7483C29.5557 33.7473 29.3277 33.6771 29.1341 33.5466C28.9405 33.4161 28.7899 33.2312 28.7012 33.0152C28.6126 32.7992 28.59 32.5618 28.6361 32.3329C28.6823 32.104 28.7953 31.894 28.9607 31.7293C29.1262 31.5645 29.3368 31.4525 29.5658 31.4073C29.7949 31.3622 30.0322 31.3859 30.2478 31.4755C30.4634 31.5651 30.6477 31.7165 30.7773 31.9107C30.9069 32.1049 30.9761 32.3332 30.9761 32.5667C30.975 32.8806 30.8494 33.1813 30.6269 33.4028C30.4044 33.6243 30.1031 33.7485 29.7892 33.7482V33.7483Z" fill="white"/>
<path d="M42.3192 22.1987C42.7845 22.1977 43.239 22.0588 43.6253 21.7995C44.0117 21.5403 44.3125 21.1724 44.4898 20.7422C44.6672 20.3121 44.713 19.839 44.6216 19.3828C44.5302 18.9266 44.3056 18.5078 43.9763 18.1792C43.6469 17.8505 43.2276 17.6269 42.7712 17.5365C42.3148 17.4462 41.8418 17.4931 41.4121 17.6714C40.9824 17.8496 40.6151 18.1513 40.3567 18.5382C40.0983 18.9251 39.9605 19.38 39.9604 19.8452C39.9618 20.4699 40.211 21.0685 40.6532 21.5097C41.0954 21.9509 41.6946 22.1987 42.3192 22.1987ZM42.3192 18.6636C42.5527 18.6646 42.7807 18.7348 42.9743 18.8653C43.1679 18.9957 43.3185 19.1807 43.4072 19.3967C43.4958 19.6127 43.5184 19.8501 43.4723 20.079C43.4261 20.3078 43.3131 20.5179 43.1476 20.6826C42.9822 20.8473 42.7716 20.9593 42.5426 21.0045C42.3135 21.0497 42.0762 21.026 41.8606 20.9364C41.6449 20.8468 41.4607 20.6953 41.3311 20.5011C41.2015 20.3069 41.1323 20.0787 41.1323 19.8452C41.1334 19.5312 41.2589 19.2305 41.4815 19.009C41.704 18.7874 42.0053 18.6632 42.3192 18.6636Z" fill="white"/>
<path d="M44.0274 24.4675L45.5728 22.4077C46.1681 21.6305 46.4641 20.6653 46.407 19.688C46.2678 17.5556 44.5212 15.885 42.4306 15.885C40.34 15.885 38.5937 17.5556 38.4543 19.6875C38.424 20.1716 38.4843 20.6571 38.6319 21.1191L28.9674 21.2963L30.4589 19.3073C31.4109 18.0658 31.8848 16.5235 31.7941 14.9616C31.6915 13.364 31.0123 11.8579 29.8829 10.7234C29.301 10.141 28.61 9.679 27.8494 9.36379C27.0889 9.04859 26.2737 8.88635 25.4504 8.88635C24.6271 8.88635 23.8119 9.04859 23.0514 9.36379C22.2908 9.679 21.5998 10.141 21.0179 10.7234C19.8886 11.8577 19.2095 13.3634 19.1068 14.9607C19.0072 16.45 19.4797 17.9913 20.4414 19.3064L21.7316 21.026L7.99801 21.1165C7.87646 21.1173 7.75816 21.1559 7.65951 21.2269C7.56086 21.2979 7.48674 21.3979 7.44742 21.5129L1.00807 40.3378C0.977913 40.426 0.969237 40.5201 0.982764 40.6124C0.99629 40.7046 1.03163 40.7923 1.08584 40.8681C1.14005 40.944 1.21158 41.0058 1.29448 41.0484C1.37737 41.091 1.46924 41.1133 1.56246 41.1133H48.4375C48.5294 41.1133 48.62 41.0917 48.702 41.0502C48.784 41.0086 48.8551 40.9484 48.9095 40.8744C48.964 40.8003 49.0002 40.7145 49.0154 40.6238C49.0305 40.5331 49.0241 40.4402 48.9966 40.3525L44.0274 24.4675ZM39.6231 19.7644C39.7099 18.4335 40.7836 17.0569 42.4301 17.0569C44.0767 17.0569 45.1502 18.4338 45.2372 19.7659C45.2756 20.4632 45.062 21.151 44.6354 21.7038L42.4301 24.6433L40.2291 21.7097C39.8057 21.1522 39.5914 20.4637 39.6236 19.7644H39.6231ZM39.1992 22.2803C39.2285 22.3229 39.2578 22.3652 39.288 22.4072L41.962 25.9717C42.0165 26.0445 42.0873 26.1035 42.1687 26.1442C42.25 26.1849 42.3398 26.2061 42.4307 26.2061C42.5217 26.2061 42.6114 26.1849 42.6928 26.1442C42.7741 26.1035 42.8449 26.0445 42.8995 25.9717L43.1611 25.6231L43.8272 27.7527L34.7422 27.7547L34.0839 22.3747L39.1992 22.2803ZM21.3835 18.6093C20.5883 17.5221 20.1952 16.2541 20.2765 15.0383C20.3606 13.7239 20.9191 12.4848 21.8481 11.5512C22.3212 11.078 22.8828 10.7026 23.501 10.4465C24.1191 10.1904 24.7817 10.0586 25.4508 10.0586C26.1199 10.0586 26.7825 10.1904 27.4006 10.4465C28.0188 10.7026 28.5804 11.078 29.0535 11.5512C29.983 12.4852 30.5417 13.7249 30.6257 15.04C30.6974 16.3217 30.3058 17.5865 29.5224 18.6035L25.4508 24.0304L21.3835 18.6093ZM2.38219 39.9414L5.42614 31.0425L8.89176 31.0319L12.0662 35.263C12.1208 35.3358 12.1915 35.3948 12.2729 35.4355C12.3542 35.4762 12.444 35.4974 12.5349 35.4974C12.6259 35.4974 12.7156 35.4762 12.797 35.4355C12.8783 35.3948 12.9491 35.3358 13.0037 35.263L15.533 31.8913L15.5641 39.9414H2.38219ZM15.3343 30.2037L12.5348 33.935L9.73961 30.2095C9.1901 29.4575 8.91813 28.5836 8.97418 27.7467C9.08414 26.0602 10.4462 24.3157 12.5348 24.3157C14.6235 24.3157 15.9855 26.0602 16.0957 27.7484C16.1446 28.6316 15.8744 29.5031 15.3343 30.2037ZM24.5692 33.7988C24.5139 33.8534 24.4699 33.9184 24.44 33.99C24.41 34.0617 24.3946 34.1386 24.3946 34.2163L24.3977 39.9414H16.736L16.6992 30.2355C17.1242 29.4503 17.3205 28.5616 17.2656 27.6704C17.1001 25.1322 15.0223 23.1439 12.5355 23.1439C10.0487 23.1439 7.97106 25.1322 7.80553 27.6694C7.761 28.4213 7.89628 29.173 8.20016 29.8621L5.82809 29.8694L8.42213 22.2857L22.6076 22.1926L24.9828 25.3584C25.0374 25.4312 25.1081 25.4902 25.1895 25.5309C25.2708 25.5716 25.3606 25.5928 25.4515 25.5928C25.5425 25.5928 25.6322 25.5716 25.7136 25.5309C25.7949 25.4902 25.8657 25.4312 25.9203 25.3584L28.0761 22.4843L32.9061 22.3957L33.642 28.4113C33.6594 28.5534 33.7282 28.6841 33.8353 28.7789C33.9425 28.8738 34.0806 28.9261 34.2237 28.9261L44.1938 28.9238L45.664 33.6237L33.7612 33.644C33.8653 33.2412 33.9044 32.8245 33.877 32.4094C33.7379 30.2768 31.9913 28.6063 29.9006 28.6063C27.81 28.6063 26.0633 30.2768 25.9243 32.4084C25.8978 32.8248 25.9388 33.2427 26.0458 33.646L24.9893 33.6303C24.9115 33.6282 24.8341 33.6421 24.7618 33.6711C24.6895 33.7 24.624 33.7435 24.5692 33.7988ZM32.1058 34.4251L29.9005 37.3646L27.6996 34.4311C27.276 33.8737 27.0615 33.1852 27.0935 32.4859C27.1803 31.1549 28.2541 29.7783 29.9005 29.7783C31.547 29.7783 32.6208 31.1553 32.7077 32.4875C32.7459 33.1847 32.5323 33.8724 32.1058 34.4252V34.4251ZM25.5696 39.9414L25.5668 34.8109L26.5544 34.8255C26.6178 34.9283 26.6857 35.0292 26.7579 35.1282L29.4318 38.6927C29.4864 38.7655 29.5571 38.8245 29.6385 38.8652C29.7199 38.9059 29.8096 38.9271 29.9005 38.9271C29.9915 38.9271 30.0812 38.9059 30.1626 38.8652C30.2439 38.8245 30.3147 38.7655 30.3693 38.6927L33.0428 35.1293C33.1192 35.0278 33.1906 34.9236 33.257 34.8168L46.0304 34.7951L47.6402 39.9414H25.5696Z" fill="white"/>
</svg>
