<svg width="100" height="100" viewBox="0 0 100 100" fill="none" xmlns="http://www.w3.org/2000/svg">
<g clip-path="url(#clip0)">
<path d="M54.7004 45.7045V43.5281C54.7004 42.9018 54.5764 42.3043 54.3529 41.7572H63.0535C65.5844 41.7572 67.6434 39.6982 67.6434 37.1674V34.533L88.2996 18.3031C88.9922 17.7588 89.4195 16.9424 89.4723 16.0631C89.525 15.1838 89.1979 14.3221 88.5746 13.699L82.5041 7.62891C82.5027 7.62754 82.5012 7.62598 82.4998 7.62461L75.3041 0.429688C75.2707 0.396094 75.2356 0.364258 75.199 0.33418C75.1258 0.273828 75.0481 0.221484 74.9668 0.177344C74.9567 0.17168 74.9455 0.167383 74.9352 0.161914C74.9045 0.146289 74.8738 0.130664 74.8424 0.117188C74.8235 0.108984 74.8035 0.102734 74.784 0.0953125C74.7602 0.0863281 74.7365 0.0769531 74.7125 0.0691406C74.6912 0.0623047 74.6694 0.0572266 74.6477 0.0515625C74.6242 0.0453125 74.6012 0.0386719 74.5776 0.0335938C74.5563 0.0291016 74.5346 0.0257812 74.5131 0.0222656C74.4879 0.0179687 74.4627 0.0136719 74.4373 0.0107422C74.417 0.00839844 74.3965 0.00703125 74.3758 0.00566406C74.3483 0.00371094 74.3207 0.00195312 74.293 0.0015625C74.2846 0.00117188 74.2764 0 74.2678 0H25.732C25.7205 0 25.7092 0.0015625 25.6977 0.00175781C25.6697 0.00234375 25.6418 0.00371094 25.6141 0.00605469C25.5932 0.00761719 25.5727 0.00976562 25.552 0.0123047C25.5274 0.0154297 25.5028 0.0193359 25.4783 0.0236328C25.4563 0.0275391 25.4342 0.0314453 25.4125 0.0361328C25.3901 0.0412109 25.3678 0.0472656 25.3455 0.0533203C25.3231 0.059375 25.3006 0.0654297 25.2785 0.0724609C25.2569 0.0794922 25.2356 0.0878906 25.2141 0.0960938C25.1928 0.104102 25.1713 0.111719 25.1504 0.120703C25.1276 0.130664 25.1053 0.142188 25.0828 0.15332C25.0645 0.1625 25.0455 0.170898 25.0276 0.180664C25.0018 0.194922 24.9768 0.210938 24.9518 0.226758C24.9381 0.235352 24.9238 0.243164 24.9104 0.252344C24.8813 0.27207 24.8533 0.29375 24.8256 0.31582C24.817 0.322656 24.8078 0.328516 24.7994 0.335547C24.7694 0.360352 24.7404 0.387305 24.7121 0.414844C24.7069 0.419922 24.701 0.424414 24.6959 0.429688L11.4254 13.6992C10.8024 14.3221 10.4754 15.1838 10.5279 16.0631C10.5805 16.9424 11.008 17.7588 11.7006 18.3031L32.3569 34.533V37.1674C32.3569 39.6982 34.4158 41.7572 36.9467 41.7572H45.6471C45.4238 42.3041 45.2996 42.9018 45.2996 43.5281V45.7047C32.4506 47.9396 22.6496 59.1711 22.6496 72.6496C22.6494 87.7307 34.919 100 50 100C56.5537 100 62.8932 97.6463 67.8506 93.3723C68.4633 92.8441 68.5317 91.9191 68.0035 91.3064C67.4754 90.6938 66.5506 90.6254 65.9375 91.1533C61.5117 94.9689 55.8518 97.0703 50 97.0703C36.5344 97.0703 25.5791 86.1152 25.5791 72.6494C25.5791 59.1838 36.5342 48.2285 50 48.2285C63.4658 48.2285 74.4207 59.1836 74.4207 72.6494C74.4207 77.8885 72.7867 82.8822 69.6953 87.0908C69.2164 87.7428 69.3569 88.6596 70.0088 89.1385C70.6608 89.6176 71.5778 89.4773 72.0567 88.825C75.5197 84.1102 77.3504 78.5166 77.3504 72.6492C77.3504 59.1709 67.5494 47.9395 54.7004 45.7045ZM86.5477 15.8883C86.5449 15.9338 86.5254 15.9711 86.4895 15.9994L66.1867 31.9516L60.4342 27.3496L81.3494 10.6174L86.5031 15.7707C86.5354 15.8031 86.5506 15.8426 86.5477 15.8883ZM53.1502 21.5227L74.192 3.46055L79.2651 8.5332L58.0895 25.4738L53.1502 21.5227ZM48.1084 17.4895H53.3506L50.8219 19.6602L48.1084 17.4895ZM64.3028 8.08828H36.3567L29.9082 2.92969H70.3125L64.3028 8.08828ZM60.8897 11.018L56.7604 14.5625C56.7412 14.5617 56.7227 14.5596 56.7033 14.5596H44.4461L40.0188 11.0178H60.8897V11.018ZM13.4522 15.8883C13.4494 15.8426 13.4645 15.8031 13.4969 15.7707L18.6508 10.6172L24.817 15.5502C25.0871 15.7662 25.4102 15.8713 25.7311 15.8713C26.1608 15.8713 26.5865 15.683 26.8758 15.3215C27.3811 14.6898 27.2789 13.768 26.6471 13.2625L20.735 8.53281L25.8408 3.42734L49.9567 22.7195C49.9574 22.7201 49.9582 22.7209 49.959 22.7215L57.1844 28.5016C57.1852 28.5021 57.186 28.5029 57.1867 28.5035L62.0022 32.3557H50.5137L31.4852 17.133C30.8535 16.6275 29.9315 16.7301 29.4262 17.3617C28.9207 17.9934 29.0233 18.9152 29.6549 19.4207L45.8238 32.3559H34.3281L13.5106 15.9994C13.4746 15.9711 13.4551 15.9338 13.4522 15.8883ZM35.2863 37.1674V35.2857H49.9947C49.9963 35.2857 49.9979 35.2861 49.9994 35.2861C50.0018 35.2861 50.0041 35.2857 50.0065 35.2857H64.7139V37.1674C64.7139 38.0828 63.969 38.8275 63.0537 38.8275H36.9465C36.0311 38.8275 35.2863 38.0828 35.2863 37.1674ZM48.2291 45.3578V43.5281C48.2291 42.5518 49.0235 41.7572 50 41.7572C50.9764 41.7572 51.7707 42.5516 51.7707 43.5281V45.3578C51.185 45.3201 50.5949 45.299 50 45.299C49.4049 45.299 48.8149 45.3203 48.2291 45.3578Z" fill="#E3E3E3"/>
<path d="M50.0002 51.7705C38.4875 51.7705 29.1211 61.1369 29.1211 72.6496C29.1211 84.1623 38.4875 93.5285 50.0002 93.5285C61.5129 93.5285 70.8793 84.1621 70.8793 72.6494C70.8793 61.1367 61.5129 51.7705 50.0002 51.7705ZM50.0002 90.5988C40.1029 90.5988 32.0508 82.5467 32.0508 72.6494C32.0508 62.7521 40.1029 54.7 50.0002 54.7C59.8977 54.7 67.9496 62.7521 67.9496 72.6494C67.9496 82.5467 59.8977 90.5988 50.0002 90.5988Z" fill="#E3E3E3"/>
<path d="M64.3361 68.1043C64.1638 67.5741 63.7054 67.1875 63.1535 67.1075L54.9722 65.9188L51.3136 58.5053C51.0667 58.0053 50.5576 57.6887 49.9999 57.6887C49.4423 57.6887 48.9331 58.0053 48.6863 58.5053L45.0277 65.9188L36.8464 67.1075C36.2947 67.1875 35.8363 67.5741 35.664 68.1043C35.4917 68.6346 35.6355 69.2168 36.0347 69.6059L41.9546 75.3764L40.5572 83.5245C40.463 84.0741 40.6888 84.6295 41.14 84.9571C41.3952 85.1426 41.6974 85.237 42.0011 85.237C42.2341 85.237 42.4683 85.1813 42.6825 85.0688L50.0001 81.2217L57.3175 85.0688C57.8113 85.3284 58.4091 85.2848 58.8603 84.9573C59.3115 84.6295 59.5374 84.0741 59.4429 83.5245L58.0456 75.3764L63.9658 69.6059C64.3648 69.2168 64.5083 68.6346 64.3361 68.1043ZM55.449 73.8163C55.1036 74.1528 54.9462 74.6377 55.0279 75.1127L56.0536 81.0946L50.6818 78.2704C50.255 78.0461 49.7454 78.0459 49.3185 78.2704L43.9466 81.0946L44.9726 75.1129C45.054 74.6377 44.8966 74.153 44.5513 73.8163L40.2054 69.5799L46.2115 68.7073C46.6886 68.6379 47.1011 68.3383 47.3144 67.9059L50.0001 62.4635L52.6861 67.9059C52.8995 68.3381 53.3118 68.6377 53.789 68.7073L59.7951 69.5799L55.449 73.8163Z" fill="#E3E3E3"/>
</g>
<defs>
<clipPath id="clip0">
<rect width="100" height="100" fill="white"/>
</clipPath>
</defs>
</svg>
