<svg width="100" height="100" viewBox="0 0 100 100" fill="none" xmlns="http://www.w3.org/2000/svg">
<path d="M80.8608 29.0527C81.9394 29.0527 82.814 28.1783 82.814 27.0996V5.85938C82.814 2.62852 80.1854 0 76.9546 0H5.86084C2.62998 0 0.00146484 2.62852 0.00146484 5.85938V94.1406C0.00146484 97.3715 2.62998 100 5.86084 100H76.9546C80.1854 100 82.814 97.3715 82.814 94.1406V79.7516C82.814 78.6729 81.9394 77.7984 80.8608 77.7984C79.7823 77.7984 78.9077 78.6729 78.9077 79.7516V94.1406C78.9077 95.2176 78.0315 96.0938 76.9546 96.0938H5.86084C4.78389 96.0938 3.90771 95.2176 3.90771 94.1406V5.85938C3.90771 4.78242 4.78389 3.90625 5.86084 3.90625H76.9546C78.0315 3.90625 78.9077 4.78242 78.9077 5.85938V27.0996C78.9077 28.1783 79.7823 29.0527 80.8608 29.0527Z" fill="#E3E3E3"/>
<path d="M41.4077 10.5469C31.4997 10.5469 23.439 18.6076 23.439 28.5156C23.439 33.6557 25.6089 38.2978 29.08 41.576C29.145 41.6455 29.2142 41.7113 29.2897 41.7713C32.4872 44.6969 36.7425 46.4842 41.4075 46.4842C46.0725 46.4842 50.3278 44.6967 53.5253 41.7713C53.6009 41.7113 53.67 41.6453 53.735 41.576C57.2065 38.2978 59.3764 33.6557 59.3764 28.5156C59.3764 18.6076 51.3157 10.5469 41.4077 10.5469ZM41.4077 42.5781C38.2185 42.5781 35.2751 41.5094 32.9134 39.7133C34.63 36.6693 37.8333 34.7656 41.4077 34.7656C44.9821 34.7656 48.1854 36.6693 49.902 39.7133C47.5401 41.5094 44.597 42.5781 41.4077 42.5781ZM38.2827 27.7344V26.4648C38.2827 24.7418 39.6847 23.3398 41.4077 23.3398C43.1308 23.3398 44.5327 24.7418 44.5327 26.4648V27.7344C44.5327 29.4574 43.1308 30.8594 41.4077 30.8594C39.6847 30.8594 38.2827 29.4574 38.2827 27.7344ZM52.7241 36.8521C51.2837 34.7158 49.2874 33.0543 46.9696 32.0285C47.8895 30.8396 48.439 29.3504 48.439 27.7344V26.4648C48.439 22.5877 45.2849 19.4336 41.4077 19.4336C37.5306 19.4336 34.3765 22.5877 34.3765 26.4648V27.7344C34.3765 29.3504 34.9259 30.8396 35.8458 32.0285C33.528 33.0543 31.5317 34.7158 30.0913 36.8521C28.3669 34.5176 27.3452 31.6342 27.3452 28.5156C27.3452 20.7615 33.6536 14.4531 41.4077 14.4531C49.1618 14.4531 55.4702 20.7615 55.4702 28.5156C55.4702 31.6342 54.4485 34.5176 52.7241 36.8521Z" fill="#E3E3E3"/>
<path d="M51.9546 85.5469H41.4077C40.3292 85.5469 39.4546 86.4213 39.4546 87.5C39.4546 88.5787 40.3292 89.4531 41.4077 89.4531H51.9546C53.0331 89.4531 53.9077 88.5787 53.9077 87.5C53.9077 86.4213 53.0331 85.5469 51.9546 85.5469Z" fill="#E3E3E3"/>
<path d="M51.9546 74.6094H24.2202C23.1417 74.6094 22.2671 75.4838 22.2671 76.5625C22.2671 77.6412 23.1417 78.5156 24.2202 78.5156H51.9546C53.0331 78.5156 53.9077 77.6412 53.9077 76.5625C53.9077 75.4838 53.0331 74.6094 51.9546 74.6094Z" fill="#E3E3E3"/>
<path d="M51.9546 63.6719H24.2202C23.1417 63.6719 22.2671 64.5463 22.2671 65.625C22.2671 66.7037 23.1417 67.5781 24.2202 67.5781H51.9546C53.0331 67.5781 53.9077 66.7037 53.9077 65.625C53.9077 64.5463 53.0331 63.6719 51.9546 63.6719Z" fill="#E3E3E3"/>
<path d="M17.2591 53.3066C16.896 52.9434 16.3921 52.7344 15.8765 52.7344C15.3626 52.7344 14.8587 52.9434 14.4956 53.3066C14.1323 53.6699 13.9233 54.1738 13.9233 54.6875C13.9233 55.2012 14.1321 55.7051 14.4956 56.0684C14.8608 56.4316 15.3626 56.6406 15.8765 56.6406C16.3921 56.6406 16.894 56.4316 17.2591 56.0684C17.6224 55.7051 17.8315 55.2012 17.8315 54.6875C17.8315 54.1738 17.6226 53.6699 17.2591 53.3066Z" fill="#E3E3E3"/>
<path d="M17.2591 64.2441C16.894 63.8809 16.3921 63.6719 15.8765 63.6719C15.3626 63.6719 14.8608 63.8809 14.4956 64.2441C14.1323 64.6074 13.9233 65.1113 13.9233 65.625C13.9233 66.1387 14.1321 66.6426 14.4956 67.0059C14.8608 67.3691 15.3626 67.5781 15.8765 67.5781C16.3921 67.5781 16.894 67.3691 17.2591 67.0059C17.6224 66.6426 17.8315 66.1387 17.8315 65.625C17.8315 65.1113 17.6226 64.6074 17.2591 64.2441Z" fill="#E3E3E3"/>
<path d="M17.2591 75.1816C16.894 74.8184 16.3921 74.6094 15.8765 74.6094C15.3626 74.6094 14.8608 74.8184 14.4956 75.1816C14.1323 75.5449 13.9233 76.0488 13.9233 76.5625C13.9233 77.0762 14.1321 77.5801 14.4956 77.9434C14.8587 78.3066 15.3626 78.5156 15.8765 78.5156C16.3921 78.5156 16.896 78.3066 17.2591 77.9434C17.6224 77.5801 17.8315 77.0762 17.8315 76.5625C17.8315 76.0488 17.6226 75.5449 17.2591 75.1816Z" fill="#E3E3E3"/>
<path d="M51.9546 52.7344H24.2202C23.1417 52.7344 22.2671 53.6088 22.2671 54.6875C22.2671 55.7662 23.1417 56.6406 24.2202 56.6406H51.9546C53.0331 56.6406 53.9077 55.7662 53.9077 54.6875C53.9077 53.6088 53.0331 52.7344 51.9546 52.7344Z" fill="#E3E3E3"/>
<path d="M95.8985 25.4531C94.001 24.3576 91.7905 24.0666 89.6737 24.6336C87.5573 25.2007 85.7881 26.5582 84.6928 28.4556L60.1143 71.0265C59.9797 71.2599 59.8946 71.5187 59.8647 71.7865L58.1346 87.2834C58.0487 88.0545 58.4272 88.8035 59.0991 89.1916C59.4024 89.3666 59.7393 89.4533 60.0754 89.4533C60.484 89.4533 60.8911 89.3254 61.2338 89.0728L73.7893 79.826C74.0063 79.6662 74.1879 79.4633 74.3225 79.2299L98.9008 36.6589C101.163 32.7418 99.8157 27.7148 95.8985 25.4531ZM62.512 83.2801L63.4155 75.1879L69.0682 78.4515L62.512 83.2801ZM71.9163 75.5851L64.4739 71.2882L84.1975 37.1261L91.6399 41.423L71.9163 75.5851ZM95.518 34.7056L93.5928 38.0402L86.1504 33.7433L88.0756 30.4088C88.6495 29.4148 89.576 28.7039 90.6846 28.4068C91.7936 28.1095 92.9514 28.2623 93.9452 28.8361C94.9391 29.4099 95.6501 30.3365 95.9471 31.4451C96.2442 32.5537 96.0918 33.7117 95.518 34.7056Z" fill="#E3E3E3"/>
</svg>
