<svg width="44" height="44" viewBox="0 0 44 44" fill="none" xmlns="http://www.w3.org/2000/svg">
<g clip-path="url(#clip0)">
<path d="M32.5139 0C32.2601 -0.00044632 32.0166 0.0999603 31.8369 0.279266L10.7985 21.3175C10.4252 21.6909 10.4252 22.2963 10.7985 22.6697L31.8369 43.7081C32.2038 44.0879 32.8092 44.0984 33.1891 43.7316C33.569 43.3646 33.5795 42.7593 33.2126 42.3794C33.2049 42.3714 33.1971 42.3636 33.1891 42.3559L12.8278 21.9946L33.191 1.63328C33.5649 1.26033 33.5656 0.654819 33.1927 0.28088C33.0129 0.100677 32.7686 -0.00044632 32.5139 0Z" fill="#F44336"/>
<path d="M32.5139 0C32.2601 -0.00044632 32.0166 0.0999603 31.8369 0.279266L10.7985 21.3175C10.4252 21.6909 10.4252 22.2963 10.7985 22.6697L31.8369 43.7081C32.2038 44.0879 32.8092 44.0984 33.1891 43.7316C33.569 43.3646 33.5795 42.7593 33.2126 42.3794C33.2049 42.3714 33.1971 42.3636 33.1891 42.3559L12.8278 21.9946L33.191 1.63328C33.5649 1.26033 33.5656 0.654819 33.1927 0.28088C33.0129 0.100677 32.7686 -0.00044632 32.5139 0Z" fill="#E1E1E1"/>
</g>
<defs>
<clipPath id="clip0">
<rect width="44" height="44" fill="white" transform="matrix(1 0 0 -1 0 44)"/>
</clipPath>
</defs>
</svg>
