<svg width="100" height="100" viewBox="0 0 100 100" fill="none" xmlns="http://www.w3.org/2000/svg">
<path d="M43.75 29.6875C44.6129 29.6875 45.3125 28.9879 45.3125 28.125C45.3125 27.2621 44.6129 26.5625 43.75 26.5625C42.8871 26.5625 42.1875 27.2621 42.1875 28.125C42.1875 28.9879 42.8871 29.6875 43.75 29.6875Z" fill="#E3E3E3"/>
<path d="M56.25 29.6875C57.1129 29.6875 57.8125 28.9879 57.8125 28.125C57.8125 27.2621 57.1129 26.5625 56.25 26.5625C55.3871 26.5625 54.6875 27.2621 54.6875 28.125C54.6875 28.9879 55.3871 29.6875 56.25 29.6875Z" fill="#E3E3E3"/>
<path d="M49.9999 42.1875C52.5233 42.1875 54.7921 40.786 55.9202 38.5282L56.0843 38.1985L53.289 36.8L53.1249 37.1313C52.5296 38.3219 51.3327 39.0625 49.9999 39.0625C48.6671 39.0625 47.4702 38.3219 46.8749 37.1313L46.7108 36.8016L43.9155 38.2L44.0796 38.5297C45.2077 40.786 47.4765 42.1875 49.9999 42.1875Z" fill="#E3E3E3"/>
<path d="M4.6875 17.1875H21.875C23.5984 17.1875 25 15.7859 25 14.0625V10.9375C25 9.21406 23.5984 7.8125 21.875 7.8125H4.6875C2.96406 7.8125 1.5625 9.21406 1.5625 10.9375V14.0625C1.5625 15.7859 2.96406 17.1875 4.6875 17.1875ZM21.8766 14.0625H18.75V10.9375H21.875L21.8766 14.0625ZM4.6875 10.9375H15.625V14.0625H4.6875V10.9375Z" fill="#E3E3E3"/>
<path d="M4.6875 29.6875H21.875C23.5984 29.6875 25 28.2859 25 26.5625V23.4375C25 21.7141 23.5984 20.3125 21.875 20.3125H4.6875C2.96406 20.3125 1.5625 21.7141 1.5625 23.4375V26.5625C1.5625 28.2859 2.96406 29.6875 4.6875 29.6875ZM21.8766 26.5625H18.75V23.4375H21.875L21.8766 26.5625ZM4.6875 23.4375H15.625V26.5625H4.6875V23.4375Z" fill="#E3E3E3"/>
<path d="M25 39.0625V35.9375C25 34.2141 23.5984 32.8125 21.875 32.8125H4.6875C2.96406 32.8125 1.5625 34.2141 1.5625 35.9375V39.0625C1.5625 40.7859 2.96406 42.1875 4.6875 42.1875H21.875C23.5984 42.1875 25 40.7859 25 39.0625ZM21.8766 39.0625H18.75V35.9375H21.875L21.8766 39.0625ZM4.6875 35.9375H15.625V39.0625H4.6875V35.9375Z" fill="#E3E3E3"/>
<path d="M85.9375 14.0625C79.0453 14.0625 73.4375 19.6703 73.4375 26.5625C73.4375 33.4547 79.0453 39.0625 85.9375 39.0625C92.8297 39.0625 98.4375 33.4547 98.4375 26.5625C98.4375 19.6703 92.8297 14.0625 85.9375 14.0625ZM91.3234 29.7391C91.6219 29.2359 91.8406 28.6922 91.9859 28.125H95.1719C94.9312 29.5453 94.375 30.8578 93.5703 31.9859L91.3234 29.7391ZM80.5516 29.7391L78.3047 31.9859C77.5 30.8578 76.9438 29.5453 76.7031 28.125H79.8891C80.0344 28.6922 80.2531 29.2359 80.5516 29.7391ZM79.9094 25H76.7031C76.9438 23.5797 77.5 22.2672 78.3047 21.1391L80.5734 23.4078C80.2813 23.9 80.0562 24.4328 79.9094 25ZM82.7828 21.1984L80.5141 18.9297C81.6422 18.125 82.9547 17.5688 84.375 17.3281V20.5344C83.8078 20.6813 83.275 20.9063 82.7828 21.1984ZM87.5 17.3281C88.9203 17.5688 90.2328 18.125 91.3609 18.9297L89.0922 21.1984C88.5984 20.9078 88.0672 20.6828 87.5 20.5344V17.3281ZM91.9656 25C91.8188 24.4328 91.5937 23.9 91.3016 23.4078L93.5703 21.1391C94.375 22.2672 94.9312 23.5797 95.1719 25H91.9656ZM80.5141 34.1953L84.8328 29.8766L83.7281 28.7719C83.1375 28.1828 82.8125 27.3969 82.8125 26.5625C82.8125 24.8391 84.2141 23.4375 85.9375 23.4375C87.6609 23.4375 89.0625 24.8391 89.0625 26.5625C89.0625 27.3969 88.7375 28.1812 88.1484 28.7719L87.0422 29.8766L91.3625 34.1969C89.8281 35.2875 87.9594 35.9375 85.9375 35.9375C83.9156 35.9375 82.0469 35.2875 80.5141 34.1953Z" fill="#E3E3E3"/>
<path d="M89.0625 60.9375H85.7969L85.4281 59.3703C83.6797 51.9422 77.3875 46.6312 69.7687 46.1547L58.6234 45.4578C60.7484 43.8016 62.3813 41.5531 63.2797 38.9578C63.6266 39.0203 63.9766 39.0625 64.3297 39.0625C67.6297 39.0625 70.3125 36.3797 70.3125 33.0797V20.3125C70.3125 9.97344 61.9016 1.5625 51.5625 1.5625H48.4375C38.0984 1.5625 29.6875 9.97344 29.6875 20.3125V33.0797C29.6875 36.3797 32.3703 39.0625 35.6703 39.0625C36.0234 39.0625 36.3734 39.0203 36.7203 38.9578C37.6187 41.5531 39.2516 43.8016 41.3766 45.4578L30.2312 46.1547C22.6141 46.6312 16.3203 51.9422 14.5719 59.3719L11.2031 73.6922C11.0266 74.4375 10.9375 75.2063 10.9375 75.975C10.9375 81.4688 15.4063 85.9375 20.9 85.9375H29.6875V98.4375H70.3125V85.9375H79.1C84.5938 85.9375 89.0625 81.4688 89.0625 75.975C89.0625 75.2063 88.9734 74.4375 88.7984 73.6922L88.0031 70.3125H89.0625C90.7859 70.3125 92.1875 68.9109 92.1875 67.1875V64.0625C92.1875 62.3391 90.7859 60.9375 89.0625 60.9375ZM82.3859 60.0859L82.5859 60.9375H76.5625C76.5625 59.2141 75.1609 57.8125 73.4375 57.8125H70.3125V49.35C76.2094 50.0234 81.0141 54.2516 82.3859 60.0859ZM57.8125 95.3125H48.4375V90.625C48.4375 89.7625 49.1391 89.0625 50 89.0625H57.8125V95.3125ZM57.8125 85.9375H54.3219C53.5359 85.9375 52.8687 85.3484 52.7719 84.5687L51.5734 74.9844C51.5656 74.9297 51.5625 74.8734 51.5625 74.8172C51.5625 74.0563 52.1812 73.4375 52.9422 73.4375H55.8812C56.4766 73.4375 57.0125 73.7688 57.2781 74.3016L57.4 74.5437C55.7641 75.6719 54.6875 77.5547 54.6875 79.6875C54.6875 82.3891 56.4188 84.6719 58.8219 85.5438C58.5484 85.7797 58.2016 85.9375 57.8125 85.9375ZM60.9375 82.8125C59.2141 82.8125 57.8125 81.4109 57.8125 79.6875C57.8125 77.9641 59.2141 76.5625 60.9375 76.5625H64.0625V82.8125H60.9375ZM67.1875 76.5625H70.3125V82.8125H67.1875V76.5625ZM60.9375 73.4375C60.7438 73.4375 60.5594 73.4781 60.3703 73.4953L60.075 72.9031C59.275 71.3063 57.6688 70.3125 55.8812 70.3125H52.9422C50.4578 70.3125 48.4375 72.3328 48.4375 74.8172C48.4375 75.0047 48.4484 75.1922 48.4719 75.375L48.6203 76.5625H44.4422C43.3578 74.7031 41.3641 73.4375 39.0609 73.4375H32.8109V67.1875H73.4359V73.4375H60.9375ZM39.0625 82.8125H35.9375V76.5625H39.0625C40.7859 76.5625 42.1875 77.9641 42.1875 79.6875C42.1875 81.4109 40.7859 82.8125 39.0625 82.8125ZM45.3125 47.6172C46.7812 48.1391 48.3547 48.4375 50 48.4375C51.6453 48.4375 53.2188 48.1391 54.6875 47.6172V51.5625H45.3125V47.6172ZM57.8125 54.6875V48.5375L60.9375 48.7328V57.8125H39.0625V48.7344L42.1875 48.5391V54.6875H57.8125ZM73.4375 64.0625H59.8141L60.5953 60.9375H73.4375V64.0625ZM44.8734 60.9375L44.0922 64.0625H41.0641L41.8453 60.9375H44.8734ZM48.0953 60.9375H51.1234L50.3422 64.0625H47.3141L48.0953 60.9375ZM54.3453 60.9375H57.3734L56.5922 64.0625H53.5641L54.3453 60.9375ZM67.1875 57.8125H64.0625V48.9297L67.1875 49.125V57.8125ZM35.9375 57.8125H32.8125V49.125L35.9375 48.9297V57.8125ZM38.6234 60.9375L37.8422 64.0625H32.8125V60.9375H38.6234ZM32.8125 76.5625V82.8125H29.6875V76.5625H32.8125ZM59.375 17.1875C60.2359 17.1875 60.9375 17.8891 60.9375 18.75V20.3125H39.0625V18.75C39.0625 17.8891 39.7641 17.1875 40.625 17.1875H59.375ZM39.0625 23.4375H60.9375V32.8125H55.0563C54.4609 32.8125 53.925 32.4813 53.6594 31.95C52.9625 30.5547 51.5609 29.6875 50 29.6875C48.4391 29.6875 47.0375 30.5547 46.3406 31.9484C46.075 32.4813 45.5391 32.8125 44.9437 32.8125H39.0625V23.4375ZM67.1875 20.3125V33.0797C67.1875 34.6562 65.9063 35.9375 64.3297 35.9375C64.2109 35.9375 64.0938 35.9078 63.9766 35.8937C64.0312 35.3937 64.0625 34.8891 64.0625 34.375V18.75C64.0625 16.1656 61.9594 14.0625 59.375 14.0625H56.25V5.40781C62.5828 7.40312 67.1875 13.3297 67.1875 20.3125ZM51.5625 4.6875C52.0906 4.6875 52.6109 4.71563 53.125 4.76719V14.0625H46.875V4.76719C47.3891 4.71563 47.9094 4.6875 48.4375 4.6875H51.5625ZM35.6703 35.9375C34.0938 35.9375 32.8125 34.6562 32.8125 33.0797V20.3125C32.8125 13.3297 37.4172 7.40312 43.75 5.40781V14.0625H40.625C38.0406 14.0625 35.9375 16.1656 35.9375 18.75V34.375C35.9375 34.8891 35.9688 35.3937 36.0234 35.8937C35.9047 35.9078 35.7891 35.9375 35.6703 35.9375ZM39.1875 35.9375H44.9437C46.7297 35.9375 48.3359 34.9453 49.1359 33.3453C49.4656 32.6875 50.5344 32.6875 50.8625 33.3453C51.6625 34.9453 53.2703 35.9375 55.0563 35.9375H60.8125C60.05 41.2297 55.4984 45.3125 50 45.3125C44.5016 45.3125 39.95 41.2297 39.1875 35.9375ZM20.9 53.8312L22.8672 55.1422C21.1281 58.0672 19.9094 61.2375 19.2391 64.5922L19.1031 65.275L16.5453 64.6359L17.6156 60.0875C18.1797 57.6828 19.3344 55.5562 20.9 53.8312ZM14.0625 75.975C14.0625 75.4469 14.1234 74.9203 14.2453 74.4078L15.8281 67.6766L21.5234 69.1L22.3031 65.2047C22.9953 61.7406 24.3406 58.4938 26.3016 55.5531L27.1688 54.2531L23.3437 51.7031C25.1906 50.4391 27.3531 49.6156 29.6906 49.3484V73.4375H20.3156V76.5625H26.5656V82.8125H20.9031C17.1297 82.8125 14.0625 79.7453 14.0625 75.975ZM32.8125 85.9375H39.0625V87.5C39.0625 88.3625 38.3609 89.0625 37.5 89.0625H34.375C33.5141 89.0625 32.8125 88.3625 32.8125 87.5V85.9375ZM32.8125 91.9C33.3031 92.075 33.825 92.1875 34.375 92.1875H37.5C40.0844 92.1875 42.1875 90.0844 42.1875 87.5V85.0687C44.0469 83.9844 45.3125 81.9906 45.3125 79.6875H49.0109L49.6703 84.9563C49.7141 85.3016 49.8047 85.6297 49.9172 85.9453C47.3719 85.9906 45.3125 88.0687 45.3125 90.625V95.3125H32.8125V91.9ZM67.1875 95.3125H60.9375V87.8438C61.5094 87.3281 61.9484 86.6781 62.2125 85.9375H67.1875V95.3125ZM85.7562 74.4094C85.8766 74.9203 85.9375 75.4469 85.9375 75.975C85.9375 79.7453 82.8703 82.8125 79.1 82.8125H73.4375V76.5625H79.6875V73.4375H76.5625V70.3125H84.7906L85.7562 74.4094ZM89.0625 67.1875H76.5625V64.0625H89.0625V67.1875Z" fill="#E3E3E3"/>
</svg>
