<svg width="45" height="45" viewBox="0 0 45 45" fill="none" xmlns="http://www.w3.org/2000/svg">
<g clip-path="url(#clip0)">
<path d="M11.7867 39.6697C11.1108 39.6697 10.4349 39.4556 9.8449 39.0271C8.66347 38.1691 8.19229 36.7178 8.64475 35.3295L12.0191 24.9744L3.1914 18.6009C2.00708 17.7458 1.5322 16.2953 1.9815 14.9054C2.4308 13.5155 3.66496 12.6174 5.1257 12.6174H16.007L19.3268 2.29289C19.7741 0.901846 21.0074 0.0018457 22.4686 0H22.4729C23.9323 0 25.1657 0.896572 25.616 2.28533L28.9657 12.6174H30.1454C30.6309 12.6174 31.0243 13.011 31.0243 13.4963C31.0243 13.9816 30.6309 14.3752 30.1454 14.3752H28.3266C27.9457 14.3752 27.608 14.1297 27.4905 13.7674L23.9438 2.82744C23.6881 2.03871 23.0165 1.75781 22.4726 1.75781C22.472 1.75781 22.4714 1.75781 22.4707 1.75781C21.9264 1.75852 21.2543 2.04073 21.0002 2.83096L17.4844 13.7653C17.3675 14.1288 17.0294 14.3752 16.6476 14.3752H5.1257C4.29592 14.3752 3.8214 14.9284 3.65406 15.4461C3.48671 15.9638 3.54762 16.69 4.22034 17.1758L13.5679 23.9245C13.8776 24.1481 14.0074 24.5462 13.889 24.9094L10.316 35.8742C10.059 36.6629 10.4376 37.2853 10.8778 37.6048C11.3179 37.9244 12.027 38.0917 12.6973 37.6034L22.018 30.8124C22.3261 30.5879 22.7439 30.5875 23.0523 30.8118L32.3402 37.5624C33.0114 38.0502 33.7204 37.8817 34.1602 37.5614C34.5999 37.2409 34.9777 36.6177 34.719 35.8292L31.1398 24.9194C31.0208 24.5564 31.1498 24.1581 31.459 23.9338L40.7823 17.1738C41.4534 16.6873 41.5133 15.9615 41.3456 15.4445C41.1779 14.9275 40.7034 14.3751 39.8745 14.3751H38.0557C37.5703 14.3751 37.1768 13.9816 37.1768 13.4962C37.1768 13.0109 37.5703 12.6173 38.0557 12.6173H39.8745C41.3336 12.6173 42.5675 13.5141 43.0176 14.9021C43.4679 16.2901 42.9955 17.7404 41.8141 18.5969L33.01 24.9805L36.3893 35.2812C36.8446 36.6692 36.376 38.1219 35.1954 38.982C34.0148 39.8421 32.4884 39.8431 31.3067 38.9841L22.5362 32.6096L13.7325 39.0239C13.1417 39.4545 12.4642 39.6697 11.7867 39.6697Z" fill="black"/>
<path d="M22.5 45C22.0146 45 21.6211 44.6064 21.6211 44.1211V37.0128C21.6211 36.5274 22.0146 36.1339 22.5 36.1339C22.9854 36.1339 23.3789 36.5274 23.3789 37.0128V44.1211C23.3789 44.6064 22.9854 45 22.5 45Z" fill="black"/>
<path d="M43.9394 29.4237C43.8494 29.4237 43.758 29.4097 43.6677 29.3804L36.9073 27.1839C36.4457 27.0338 36.193 26.538 36.3431 26.0764C36.493 25.6148 36.9889 25.3624 37.4506 25.512L44.2109 27.7086C44.6725 27.8586 44.9252 28.3545 44.7752 28.8161C44.6544 29.1875 44.3099 29.4237 43.9394 29.4237Z" fill="black"/>
<path d="M31.5711 9.97091C31.392 9.97091 31.2113 9.91633 31.0552 9.80296C30.6625 9.51766 30.5755 8.96799 30.8608 8.5753L35.0389 2.82453C35.3243 2.43183 35.8738 2.34473 36.2666 2.63011C36.6593 2.91541 36.7463 3.46507 36.461 3.85777L32.2829 9.60854C32.1109 9.84532 31.8429 9.97091 31.5711 9.97091Z" fill="black"/>
<path d="M13.429 9.97092C13.1571 9.97092 12.8891 9.84524 12.7171 9.60855L8.53899 3.85787C8.25369 3.46517 8.34079 2.91551 8.7334 2.63021C9.12618 2.34474 9.67576 2.43193 9.96106 2.82463L14.1392 8.5754C14.4245 8.96809 14.3374 9.51776 13.9448 9.80305C13.7889 9.91634 13.6081 9.97092 13.429 9.97092Z" fill="black"/>
<path d="M1.06062 29.4237C0.690077 29.4237 0.345634 29.1875 0.224872 28.8161C0.0749305 28.3545 0.327528 27.8586 0.78913 27.7086L7.5495 25.512C8.01128 25.3621 8.50698 25.6147 8.65701 26.0764C8.80704 26.538 8.55435 27.0339 8.09275 27.1839L1.33247 29.3805C1.24221 29.4097 1.15062 29.4237 1.06062 29.4237Z" fill="black"/>
<path d="M34.1006 14.3754C33.8694 14.3754 33.6427 14.2814 33.4792 14.1178C33.3157 13.9544 33.2217 13.7276 33.2217 13.4965C33.2217 13.2653 33.3157 13.0385 33.4792 12.8752C33.6427 12.7117 33.8686 12.6176 34.1006 12.6176C34.3317 12.6176 34.5585 12.7116 34.722 12.8752C34.8854 13.0385 34.9795 13.2653 34.9795 13.4965C34.9795 13.7276 34.8854 13.9544 34.722 14.1178C34.5585 14.2813 34.3317 14.3754 34.1006 14.3754Z" fill="black"/>
</g>
<defs>
<clipPath id="clip0">
<rect width="45" height="45" fill="white"/>
</clipPath>
</defs>
</svg>
