<svg width="40" height="40" viewBox="0 0 40 40" fill="none" xmlns="http://www.w3.org/2000/svg">
<path d="M38.125 21.875H29.375C29.2092 21.875 29.0503 21.9408 28.9331 22.0581C28.8158 22.1753 28.75 22.3342 28.75 22.5V37.5H25V11.875C25 11.7092 24.9342 11.5503 24.8169 11.4331C24.6997 11.3158 24.5408 11.25 24.375 11.25H15.625C15.4592 11.25 15.3003 11.3158 15.1831 11.4331C15.0658 11.5503 15 11.7092 15 11.875V37.5H11.25V20C11.25 19.8342 11.1842 19.6753 11.0669 19.5581C10.9497 19.4408 10.7908 19.375 10.625 19.375H1.875C1.70924 19.375 1.55027 19.4408 1.43306 19.5581C1.31585 19.6753 1.25 19.8342 1.25 20V38.125C1.25 38.2908 1.31585 38.4497 1.43306 38.5669C1.55027 38.6842 1.70924 38.75 1.875 38.75H38.125C38.2908 38.75 38.4497 38.6842 38.5669 38.5669C38.6842 38.4497 38.75 38.2908 38.75 38.125V22.5C38.75 22.3342 38.6842 22.1753 38.5669 22.0581C38.4497 21.9408 38.2908 21.875 38.125 21.875ZM2.5 37.5V20.625H10V37.5H2.5ZM16.25 37.5V12.5H23.75V37.5H16.25ZM30 37.5V23.125H37.5V37.5H30Z" fill="black"/>
<path d="M6.25002 16.875C6.85062 16.8767 7.44279 16.7337 7.97642 16.4581C8.51006 16.1825 8.96947 15.7824 9.31578 15.2917C9.66209 14.801 9.88511 14.2341 9.96599 13.639C10.0469 13.0438 9.9832 12.438 9.78039 11.8726L17.0786 7.34558C17.4037 7.75249 17.8104 8.08695 18.2724 8.32751C18.7344 8.56807 19.2415 8.70942 19.7614 8.74249C20.2812 8.77556 20.8022 8.69963 21.2909 8.51955C21.7797 8.33948 22.2254 8.05925 22.5995 7.69683L30.4073 13.9343C29.9814 14.775 29.8869 15.745 30.1425 16.652C30.3981 17.5591 30.9851 18.337 31.7873 18.8317C32.5895 19.3263 33.5482 19.5015 34.4734 19.3225C35.3986 19.1436 36.2229 18.6235 36.7828 17.8655C37.3426 17.1074 37.5973 16.1667 37.4962 15.2297C37.3951 14.2928 36.9458 13.428 36.2371 12.8068C35.5285 12.1856 34.6123 11.8532 33.6702 11.8757C32.728 11.8982 31.8287 12.2738 31.1505 12.9281L23.3427 6.69058C23.6249 6.13679 23.7651 5.52155 23.7506 4.90016C23.7362 4.27877 23.5675 3.67072 23.2598 3.13067C22.9521 2.59063 22.515 2.13551 21.9878 1.80624C21.4606 1.47697 20.8599 1.28387 20.2396 1.2443C19.6193 1.20473 18.9989 1.31994 18.4342 1.57955C17.8694 1.83917 17.3781 2.23506 17.0042 2.73163C16.6304 3.2282 16.3858 3.80989 16.2925 4.4244C16.1992 5.03892 16.2601 5.66698 16.4696 6.25215L9.17146 10.7795C8.77464 10.2853 8.259 9.89977 7.67274 9.65898C7.08648 9.41819 6.44874 9.32997 5.81913 9.40257C5.18952 9.47518 4.5886 9.70624 4.07253 10.0741C3.55647 10.4421 3.14211 10.9348 2.86819 11.5063C2.59427 12.0779 2.46973 12.7095 2.50622 13.3423C2.5427 13.975 2.73902 14.5881 3.07682 15.1244C3.41462 15.6607 3.88287 16.1025 4.4378 16.4087C4.99274 16.7148 5.61624 16.8753 6.25002 16.875V16.875ZM33.75 13.125C34.2445 13.125 34.7278 13.2716 35.1389 13.5463C35.5501 13.8211 35.8705 14.2115 36.0597 14.6683C36.2489 15.1251 36.2984 15.6278 36.202 16.1127C36.1055 16.5977 35.8674 17.0432 35.5178 17.3928C35.1682 17.7424 34.7227 17.9805 34.2377 18.077C33.7528 18.1734 33.2501 18.1239 32.7933 17.9347C32.3365 17.7455 31.946 17.4251 31.6713 17.0139C31.3966 16.6028 31.25 16.1195 31.25 15.625C31.2508 14.9622 31.5144 14.3268 31.9831 13.8581C32.4518 13.3894 33.0872 13.1258 33.75 13.125V13.125ZM20 2.50002C20.4945 2.50002 20.9778 2.64664 21.3889 2.92135C21.8001 3.19605 22.1205 3.5865 22.3097 4.04331C22.4989 4.50013 22.5484 5.00279 22.452 5.48775C22.3555 5.9727 22.1174 6.41816 21.7678 6.76779C21.4182 7.11742 20.9727 7.35552 20.4877 7.45198C20.0028 7.54845 19.5001 7.49894 19.0433 7.30972C18.5865 7.1205 18.196 6.80007 17.9213 6.38895C17.6466 5.97782 17.5 5.49447 17.5 5.00002C17.5008 4.33721 17.7644 3.70176 18.2331 3.23308C18.7018 2.7644 19.3372 2.50076 20 2.50002V2.50002ZM6.25002 10.625C6.74447 10.625 7.22782 10.7716 7.63894 11.0463C8.05007 11.3211 8.3705 11.7115 8.55972 12.1683C8.74894 12.6251 8.79845 13.1278 8.70198 13.6127C8.60552 14.0977 8.36742 14.5432 8.01779 14.8928C7.66815 15.2424 7.2227 15.4805 6.73775 15.577C6.25279 15.6734 5.75013 15.6239 5.29331 15.4347C4.8365 15.2455 4.44605 14.9251 4.17135 14.5139C3.89664 14.1028 3.75002 13.6195 3.75002 13.125C3.75076 12.4622 4.0144 11.8268 4.48307 11.3581C4.95175 10.8894 5.58721 10.6258 6.25002 10.625V10.625Z" fill="black"/>
</svg>
