<svg width="40" height="40" viewBox="0 0 40 40" fill="none" xmlns="http://www.w3.org/2000/svg">
<path d="M40 0H0V40H40V0Z" fill="#7D3DAF"/>
<path d="M32.6507 12.894L32.6428 12.8624C32.0038 10.2793 29.1231 7.5075 26.4777 6.93085L26.4479 6.9247C22.169 6.10843 17.8305 6.10843 13.5526 6.9247L13.5218 6.93085C10.8773 7.5075 7.99665 10.2793 7.3568 12.8624L7.34978 12.894C6.55984 16.5014 6.55984 20.1597 7.34978 23.7671L7.3568 23.7987C7.96936 26.2716 10.6355 28.916 13.1822 29.6433V32.5267C13.1822 33.5703 14.454 34.0829 15.1772 33.3298L18.0987 30.2931C18.7323 30.3285 19.3663 30.3483 20.0002 30.3483C22.1541 30.3483 24.3089 30.1446 26.4479 29.7365L26.4777 29.7304C29.1231 29.1537 32.0038 26.3819 32.6428 23.7988L32.6507 23.7672C33.4406 20.1597 33.4406 16.5014 32.6507 12.894ZM30.3388 23.244C29.9122 24.9292 27.725 27.0243 25.9871 27.4114C23.712 27.844 21.4189 28.0289 19.128 27.9655C19.0825 27.9642 19.0387 27.9819 19.0069 28.0145C18.6818 28.3482 16.8738 30.2042 16.8738 30.2042L14.6049 32.5328C14.439 32.7057 14.1476 32.5881 14.1476 32.3494V27.5727C14.1476 27.4938 14.0913 27.4267 14.0138 27.4115C14.0134 27.4114 14.0129 27.4114 14.0125 27.4113C12.2746 27.0242 10.0882 24.9291 9.66079 23.2439C8.94985 19.9832 8.94985 16.6777 9.66079 13.417C10.0882 11.7318 12.2746 9.63674 14.0125 9.24967C17.9859 8.49396 22.0146 8.49396 25.9871 9.24967C27.7258 9.63674 29.9122 11.7318 30.3388 13.417C31.0505 16.6778 31.0505 19.9833 30.3388 23.244Z" fill="white"/>
<path d="M23.7807 25.4492C23.5135 25.3681 23.2589 25.3136 23.0224 25.2155C20.5722 24.1989 18.3172 22.8874 16.5309 20.877C15.5152 19.7338 14.7201 18.4431 14.0481 17.0772C13.7294 16.4295 13.4608 15.7564 13.187 15.0876C12.9374 14.4778 13.3051 13.8478 13.6922 13.3883C14.0555 12.9571 14.523 12.6271 15.0293 12.3838C15.4244 12.194 15.8142 12.3034 16.1028 12.6384C16.7267 13.3625 17.2997 14.1236 17.7638 14.963C18.0491 15.4793 17.9708 16.1103 17.4537 16.4617C17.328 16.5471 17.2134 16.6473 17.0964 16.7438C16.9937 16.8283 16.897 16.9137 16.8266 17.0282C16.698 17.2376 16.6918 17.4846 16.7747 17.7122C17.4124 19.4649 18.4874 20.8277 20.2514 21.5617C20.5337 21.6792 20.8172 21.8159 21.1423 21.778C21.687 21.7144 21.8633 21.117 22.2449 20.8049C22.618 20.4999 23.0946 20.4958 23.4965 20.7501C23.8984 21.0045 24.288 21.2775 24.6752 21.5535C25.0554 21.8243 25.4338 22.0893 25.7845 22.3981C26.1216 22.695 26.2377 23.0845 26.0479 23.4875C25.7003 24.2255 25.1946 24.8394 24.465 25.2313C24.259 25.3418 24.013 25.3777 23.7807 25.4492C23.5135 25.368 24.013 25.3777 23.7807 25.4492Z" fill="white"/>
<path d="M20.007 11.5394C23.212 11.6292 25.8443 13.7562 26.4084 16.9247C26.5045 17.4646 26.5387 18.0166 26.5815 18.5645C26.5995 18.795 26.469 19.014 26.2202 19.017C25.9633 19.0201 25.8477 18.8051 25.8311 18.5747C25.798 18.1187 25.7751 17.6606 25.7123 17.2083C25.3805 14.8208 23.4768 12.8456 21.1004 12.4218C20.7428 12.358 20.3768 12.3412 20.0146 12.3032C19.7856 12.2792 19.4857 12.2653 19.4349 11.9806C19.3924 11.742 19.5938 11.552 19.821 11.5398C19.8828 11.5363 19.945 11.5392 20.007 11.5394C23.212 11.6292 19.945 11.5392 20.007 11.5394Z" fill="white"/>
<path d="M24.8773 17.8533C24.872 17.8933 24.8692 17.9874 24.8458 18.0761C24.7607 18.3978 24.2729 18.4381 24.1606 18.1134C24.1273 18.017 24.1223 17.9074 24.1221 17.8036C24.121 17.1248 23.9734 16.4467 23.6311 15.8561C23.2793 15.249 22.7417 14.7387 22.1111 14.43C21.7298 14.2433 21.3175 14.1272 20.8996 14.0581C20.717 14.0279 20.5324 14.0095 20.3489 13.984C20.1264 13.9531 20.0077 13.8114 20.0182 13.5922C20.0281 13.3868 20.1781 13.2391 20.402 13.2517C21.1375 13.2935 21.8479 13.4525 22.5018 13.7987C23.8315 14.5029 24.5911 15.6144 24.8128 17.0986C24.8228 17.1659 24.8389 17.2325 24.844 17.3C24.8566 17.4667 24.8645 17.6335 24.8773 17.8533C24.872 17.8933 24.8645 17.6335 24.8773 17.8533Z" fill="white"/>
<path d="M22.8843 17.7758C22.6162 17.7806 22.4727 17.6322 22.445 17.3863C22.4258 17.2149 22.4106 17.0412 22.3697 16.8745C22.2891 16.546 22.1145 16.2416 21.8382 16.0404C21.7078 15.9453 21.56 15.8761 21.4052 15.8314C21.2085 15.7746 21.0042 15.7902 20.808 15.7421C20.5949 15.6899 20.477 15.5174 20.5105 15.3174C20.541 15.1355 20.718 14.9934 20.9168 15.0078C22.1594 15.0975 23.0475 15.7399 23.1742 17.2027C23.1832 17.306 23.1937 17.415 23.1708 17.5138C23.1315 17.6828 23.0064 17.7675 22.8843 17.7758C22.6162 17.7806 23.0064 17.7675 22.8843 17.7758Z" fill="white"/>
</svg>
