<svg width="40" height="40" viewBox="0 0 40 40" fill="none" xmlns="http://www.w3.org/2000/svg">
<path d="M40 0H0V40H40V0Z" fill="#3E7FC5"/>
<path d="M10.3623 12.173C11.321 14.5403 12.5359 16.7724 14.136 18.7761C14.3483 19.0427 14.6158 19.2798 14.8976 19.4728C15.3093 19.7555 15.6977 19.6562 15.865 19.1853C16.0421 18.6911 16.2045 17.6896 16.2142 17.1707C16.2406 15.8149 16.2102 14.9263 16.1374 13.572C16.0902 12.7047 15.7818 11.9431 14.506 11.7132C14.112 11.642 14.0754 11.3176 14.3285 10.9941C14.8555 10.3206 15.5896 10.2132 16.3857 10.1707C17.6759 10.1011 18.9709 10.1579 20.2627 10.1707C20.7889 10.1756 21.3183 10.218 21.8365 10.3309C22.5124 10.4783 22.8744 10.9524 22.9857 11.6123C23.0434 11.9527 23.0731 12.3026 23.065 12.647C23.0314 14.127 22.9601 15.6062 22.9433 17.0854C22.9361 17.666 22.9784 18.2611 23.1026 18.8265C23.2764 19.6146 23.813 19.8124 24.3616 19.243C25.0584 18.5199 25.6727 17.7062 26.2492 16.8797C27.2968 15.3764 28.0792 13.7267 28.7527 12.0257C29.1011 11.148 29.3678 10.9573 30.312 10.955C32.0867 10.9509 33.8614 10.9494 35.6362 10.955C35.9509 10.9566 36.2801 10.9862 36.5772 11.0808C37.0593 11.2345 37.2507 11.6277 37.1378 12.1267C36.8743 13.296 36.2424 14.2898 35.5657 15.2453C34.4797 16.7781 33.3417 18.2742 32.2301 19.7894C32.0884 19.9824 31.9635 20.1882 31.8473 20.3972C31.4316 21.1484 31.4605 21.5697 32.0667 22.1951C33.0317 23.1906 34.0649 24.122 34.9995 25.1447C35.6787 25.8887 36.3073 26.6959 36.8455 27.5456C37.5262 28.6204 37.1057 29.6327 35.834 29.8128C35.034 29.9258 31.1259 29.8137 30.9239 29.8128C29.8732 29.8081 28.9522 29.4437 28.2106 28.7301C27.3857 27.9357 26.636 27.0643 25.844 26.2354C25.6053 25.9855 25.3506 25.7461 25.076 25.537C24.4281 25.0428 23.7922 25.1526 23.4895 25.9134C23.2308 26.567 23.0073 28.2832 22.9969 28.4298C22.9425 29.1962 22.4547 29.6847 21.5961 29.7319C19.1175 29.8665 16.7156 29.5902 14.4781 28.3913C12.5816 27.3758 11.0672 25.9399 9.75538 24.2653C7.67152 21.6055 6.02555 18.6817 4.52282 15.6721C4.44602 15.5183 2.92399 12.2795 2.88309 12.1265C2.74713 11.6143 2.87396 11.125 3.30676 10.9566C3.57656 10.8516 8.59479 10.9562 8.67826 10.9607C9.47899 11.004 10.025 11.3419 10.3623 12.173Z" fill="white"/>
</svg>
