<svg width="110" height="110" viewBox="0 0 110 110" fill="none" xmlns="http://www.w3.org/2000/svg">
<path d="M89.6873 101.135H9.17031C7.52746 101.133 5.95232 100.48 4.79051 99.3183C3.6287 98.1568 2.97511 96.5818 2.97314 94.9389V20.191C2.97314 19.7967 3.12976 19.4186 3.40853 19.1398C3.6873 18.8611 4.06539 18.7045 4.45963 18.7045C4.85387 18.7045 5.23197 18.8611 5.51074 19.1398C5.78951 19.4186 5.94612 19.7967 5.94612 20.191V94.9389C5.9473 95.7935 6.28742 96.6128 6.89185 97.2169C7.49629 97.8211 8.3157 98.1609 9.17031 98.1616H89.6873C90.5409 98.1593 91.3588 97.8188 91.9619 97.2149C92.5651 96.6109 92.9044 95.7925 92.9056 94.9389V74.7703C92.9056 74.376 93.0622 73.9979 93.341 73.7192C93.6197 73.4404 93.9978 73.2838 94.3921 73.2838C94.7863 73.2838 95.1644 73.4404 95.4432 73.7192C95.7219 73.9979 95.8785 74.376 95.8785 74.7703V94.9419C95.8758 96.5832 95.2227 98.1565 94.0622 99.3172C92.9018 100.478 91.3286 101.131 89.6873 101.135Z" fill="#E3E3E3"/>
<path d="M94.392 57.9225C93.9977 57.9225 93.6196 57.7659 93.3409 57.4871C93.0621 57.2083 92.9055 56.8302 92.9055 56.436V34.76C92.9047 33.9054 92.565 33.086 91.9608 32.4816C91.3567 31.8771 90.5374 31.537 89.6828 31.5358H13.3532C12.9589 31.5358 12.5809 31.3792 12.3021 31.1005C12.0233 30.8217 11.8667 30.4436 11.8667 30.0494C11.8667 29.6551 12.0233 29.277 12.3021 28.9982C12.5809 28.7195 12.9589 28.5629 13.3532 28.5629H89.6872C91.3293 28.566 92.9032 29.2201 94.0637 30.3818C95.2243 31.5435 95.8769 33.118 95.8785 34.76V56.436C95.8785 56.8302 95.7219 57.2083 95.4431 57.4871C95.1643 57.7659 94.7862 57.9225 94.392 57.9225Z" fill="#E3E3E3"/>
<path d="M83.4827 31.5357H13.9731C11.0568 31.5322 8.26101 30.3721 6.19888 28.31C4.13675 26.2478 2.97668 23.452 2.97314 20.5357V19.8683C2.97668 16.952 4.13675 14.1562 6.19888 12.094C8.26101 10.0319 11.0568 8.87183 13.9731 8.86829H77.8921C79.77 8.87025 81.5705 9.61714 82.8984 10.9451C84.2263 12.273 84.9732 14.0734 84.9752 15.9514V30.0522C84.9748 30.2477 84.9359 30.4411 84.8606 30.6215C84.7854 30.8019 84.6753 30.9657 84.5366 31.1035C84.398 31.2413 84.2336 31.3504 84.0527 31.4246C83.8719 31.4987 83.6782 31.5365 83.4827 31.5357ZM13.9731 11.8383C11.8451 11.841 9.80498 12.6876 8.30022 14.1924C6.79546 15.6971 5.94887 17.7373 5.94612 19.8653V20.5327C5.94887 22.6608 6.79546 24.7009 8.30022 26.2057C9.80498 27.7104 11.8451 28.557 13.9731 28.5598H81.9948V15.9484C81.9936 14.86 81.5612 13.8164 80.7923 13.046C80.0233 12.2757 78.9805 11.8414 77.8921 11.8383H13.9731Z" fill="#E3E3E3"/>
<path d="M99.5395 76.2568H83.8244C81.7196 76.2559 79.6622 75.6312 77.9123 74.4616C76.1623 73.292 74.7983 71.63 73.9924 69.6856C73.1866 67.7411 72.9751 65.6015 73.3847 63.5369C73.7944 61.4723 74.8067 59.5755 76.2938 58.086C77.2771 57.0886 78.4498 56.2977 79.743 55.7599C81.0362 55.222 82.4238 54.948 83.8244 54.9539H100.524C100.822 54.9561 101.119 54.8981 101.395 54.7834C101.671 54.6688 101.921 54.4998 102.13 54.2865C102.555 53.8592 102.795 53.2821 102.798 52.6796C102.798 52.2854 102.955 51.9073 103.233 51.6285C103.512 51.3497 103.89 51.1931 104.284 51.1931C104.679 51.1931 105.057 51.3497 105.336 51.6285C105.614 51.9073 105.771 52.2854 105.771 52.6796V70.0373C105.768 71.688 105.11 73.2702 103.942 74.4363C102.774 75.6024 101.19 76.2572 99.5395 76.2568ZM83.8244 57.9195C81.7883 57.9238 79.8372 58.7358 78.3992 60.1771C76.9611 61.6185 76.1537 63.5715 76.1541 65.6076C76.1565 67.641 76.9654 69.5904 78.4034 71.0281C79.8414 72.4659 81.791 73.2744 83.8244 73.2764H99.5395C100.401 73.2783 101.228 72.9383 101.839 72.331C102.45 71.7237 102.795 70.8987 102.798 70.0373V57.4022C102.089 57.7445 101.311 57.9214 100.524 57.9195H83.8244Z" fill="#E3E3E3"/>
<path d="M100.524 57.9195H94.3576C93.9633 57.9195 93.5852 57.7629 93.3065 57.4841C93.0277 57.2054 92.8711 56.8273 92.8711 56.433V48.9054C92.8711 48.5112 93.0277 48.1331 93.3065 47.8543C93.5852 47.5756 93.9633 47.4189 94.3576 47.4189H100.524C101.915 47.4189 103.25 47.9718 104.234 48.9558C105.218 49.9399 105.771 51.2746 105.771 52.6663C105.771 54.0579 105.218 55.3926 104.234 56.3767C103.25 57.3607 101.915 57.9136 100.524 57.9136V57.9195ZM95.8441 54.9465H100.524C100.822 54.9487 101.119 54.8907 101.395 54.776C101.671 54.6614 101.921 54.4924 102.13 54.2791C102.451 53.9616 102.669 53.556 102.759 53.114C102.848 52.6719 102.803 52.2132 102.631 51.7965C102.459 51.3797 102.166 51.0236 101.791 50.7735C101.416 50.5234 100.975 50.3905 100.524 50.3919H95.8441V54.9465Z" fill="#E3E3E3"/>
<path d="M84.4564 70.2201C83.5095 70.2201 82.5838 69.9393 81.7964 69.4132C81.009 68.8871 80.3953 68.1393 80.0329 67.2644C79.6705 66.3895 79.5757 65.4268 79.7605 64.4981C79.9452 63.5693 80.4012 62.7161 81.0708 62.0465C81.7404 61.3769 82.5936 60.9209 83.5223 60.7362C84.4511 60.5514 85.4138 60.6462 86.2887 61.0086C87.1636 61.371 87.9114 61.9847 88.4375 62.7721C88.9636 63.5595 89.2444 64.4852 89.2444 65.4321C89.2432 66.7016 88.7384 67.9188 87.8407 68.8165C86.9431 69.7141 85.7259 70.2189 84.4564 70.2201ZM84.4564 63.6171C84.0975 63.6171 83.7465 63.7236 83.4481 63.923C83.1496 64.1225 82.917 64.4059 82.7796 64.7376C82.6422 65.0692 82.6063 65.4342 82.6763 65.7862C82.7463 66.1383 82.9192 66.4617 83.173 66.7155C83.4269 66.9694 83.7503 67.1422 84.1023 67.2123C84.4544 67.2823 84.8193 67.2464 85.151 67.109C85.4826 66.9716 85.7661 66.739 85.9655 66.4405C86.165 66.142 86.2714 65.7911 86.2714 65.4321C86.2695 64.9518 86.0775 64.4917 85.7374 64.1525C85.3973 63.8132 84.9368 63.6224 84.4564 63.6216V63.6171Z" fill="#E3E3E3"/>
</svg>
